<?xml version="1.0" encoding="UTF-8"?>
<svg id="Layer_2" data-name="Layer 2" xmlns="http://www.w3.org/2000/svg" viewBox="0 0 867.88 391.89">
  <defs>
    <style>
      .cls-1 {
        fill: #f9f9f9;
      }

      .cls-2 {
        opacity: .07;
      }

      .cls-3 {
        fill-rule: evenodd;
      }

      .cls-3, .cls-4 {
        fill: #333;
      }

      .cls-5 {
        fill: #f18c3b;
      }
    </style>
  </defs>
  <g id="Layer_1-2" data-name="Layer 1">
    <g>
      <rect class="cls-5" width="867.88" height="391.89"/>
      <g>
        <path class="cls-1" d="M149.07,236.96c4.25,0,8.38.54,12.37,1.61,3.99,1.08,7.72,2.61,11.19,4.59,3.47,1.98,6.62,4.37,9.46,7.17,2.84,2.8,5.28,5.89,7.31,9.29,2.03,3.39,3.61,7.06,4.73,11.01,1.12,3.94,1.69,8.07,1.69,12.37s-.56,8.4-1.69,12.3c-1.12,3.9-2.69,7.54-4.7,10.93-2.01,3.39-4.43,6.46-7.28,9.21-2.84,2.75-5.99,5.1-9.43,7.06-3.44,1.96-7.13,3.49-11.08,4.59-3.94,1.1-8.04,1.65-12.3,1.65h-16.63c-1.53,0-2.96-.27-4.3-.82-1.34-.55-2.51-1.31-3.51-2.29-1-.98-1.79-2.14-2.37-3.48-.57-1.34-.86-2.77-.86-4.3v-69.98c0-1.53.29-2.95.86-4.27.57-1.31,1.36-2.46,2.37-3.44,1-.98,2.17-1.76,3.51-2.33,1.34-.57,2.77-.86,4.3-.86h16.35ZM173.45,283.02c0-3.35-.63-6.47-1.9-9.37-1.27-2.9-2.99-5.4-5.16-7.5-2.18-2.11-4.74-3.77-7.71-4.99-2.96-1.22-6.14-1.83-9.54-1.83h-5.31v47.25h5.31c3.39,0,6.57-.57,9.54-1.72,2.96-1.15,5.53-2.76,7.71-4.85,2.17-2.08,3.9-4.57,5.16-7.47,1.27-2.9,1.9-6.07,1.9-9.52Z"/>
        <path class="cls-1" d="M225.65,302.49c1.58,2.01,3.17,3.53,4.77,4.55,1.6,1.03,3.6,1.54,5.99,1.54,1.15,0,2.09-.05,2.83-.14.74-.1,1.37-.24,1.9-.43.53-.19.98-.39,1.36-.61.38-.21.76-.44,1.15-.68,1.82-1.34,3.56-2.12,5.23-2.33,1.67-.21,3.25-.04,4.73.54,1.05.38,2,.96,2.83,1.72.84.77,1.54,1.63,2.12,2.58.57,1,.98,2.16,1.22,3.48.24,1.32.29,2.65.14,4.02-.14,1.36-.53,2.69-1.15,3.98-.62,1.29-1.51,2.39-2.65,3.3-.86.67-1.86,1.33-3.01,1.97-1.15.65-2.51,1.23-4.09,1.76-1.58.53-3.39.96-5.45,1.29-2.06.33-4.45.5-7.17.5-4.73,0-9.18-.9-13.34-2.69-4.16-1.79-7.8-4.23-10.93-7.31-3.13-3.08-5.6-6.69-7.42-10.83-1.82-4.13-2.72-8.57-2.72-13.3s.91-9.18,2.72-13.34c1.82-4.16,4.29-7.78,7.42-10.86,3.13-3.08,6.78-5.52,10.93-7.31,4.16-1.79,8.6-2.69,13.34-2.69s9,.87,13.09,2.62c4.09,1.75,7.65,4.15,10.68,7.21,3.04,3.06,5.44,6.63,7.21,10.72,1.77,4.09,2.7,8.47,2.8,13.16,0,1.39-.24,2.57-.72,3.55-.48.98-1.16,1.77-2.04,2.37-.89.6-1.92,1.03-3.12,1.29-1.2.26-2.51.39-3.94.39h-34.7ZM248.81,289.37c-1.29-2.34-2.9-4.16-4.84-5.45s-4.31-1.94-7.13-1.94-5.01.69-6.85,2.08c-1.84,1.39-3.38,3.16-4.62,5.31h23.45Z"/>
        <path class="cls-1" d="M294.09,300.84c-3.04-1.34-5.74-2.87-8.1-4.59s-4.28-3.72-5.74-5.99c-1.46-2.27-2.19-4.96-2.19-8.07s.67-5.96,2.01-8.57c1.34-2.6,3.15-4.85,5.45-6.74,2.29-1.89,4.99-3.36,8.1-4.41,3.11-1.05,6.43-1.58,9.97-1.58,2.58,0,5.25.29,7.99.86,2.75.57,5.25,1.45,7.49,2.62,2.25,1.17,4.1,2.63,5.56,4.37,1.46,1.75,2.19,3.79,2.19,6.13,0,1.53-.32,2.88-.97,4.05-.65,1.17-1.42,2.15-2.33,2.94-.91.79-1.85,1.39-2.83,1.79-.98.41-1.81.61-2.47.61-1.1,0-2.16-.21-3.19-.62-1.03-.41-2.07-.88-3.12-1.39-1.05-.51-2.13-.97-3.23-1.39-1.1-.41-2.25-.62-3.44-.62s-2.04.07-2.69.22c-.65.14-1.12.32-1.43.54-.31.21-.51.44-.61.68-.1.24-.14.46-.14.65,0,.81.79,1.53,2.37,2.15,1.58.62,3.92,1.44,7.03,2.44,2.53.86,4.97,1.83,7.31,2.91,2.34,1.08,4.41,2.41,6.2,3.99,1.79,1.58,3.23,3.51,4.3,5.78s1.61,5.01,1.61,8.22c0,3.02-.61,5.84-1.83,8.47-1.22,2.63-2.94,4.93-5.16,6.89-2.22,1.96-4.9,3.51-8.03,4.63-3.13,1.12-6.59,1.69-10.36,1.69-2.01,0-4.24-.21-6.7-.65-2.46-.43-4.9-1.13-7.31-2.12-2.41-.98-4.69-2.27-6.81-3.87-2.13-1.6-3.84-3.57-5.13-5.92-1.2-2.1-1.79-4.18-1.79-6.24,0-1.43.27-2.74.82-3.91.55-1.17,1.29-2.17,2.22-3.01.93-.84,2.01-1.49,3.23-1.97,1.22-.48,2.52-.72,3.91-.72,2.15,0,3.94.47,5.38,1.4,1.43.93,2.75,1.97,3.94,3.12,1.19,1.15,2.4,2.19,3.62,3.12,1.22.93,2.69,1.4,4.41,1.4,1.34,0,2.32-.21,2.94-.65.62-.43.9-.94.82-1.54-.07-.6-.46-1.21-1.15-1.83-.69-.62-1.64-1.12-2.83-1.51h.07c-3.2-1.19-6.32-2.46-9.36-3.8Z"/>
        <path class="cls-1" d="M369.34,283.56c-1.53.1-2.94.53-4.23,1.29-1.29.77-2.4,1.72-3.33,2.87-.93,1.15-1.66,2.39-2.19,3.73-.53,1.34-.79,2.63-.79,3.87s.26,2.53.79,3.87c.53,1.34,1.25,2.57,2.19,3.69.93,1.12,2.04,2.08,3.33,2.87,1.29.79,2.7,1.21,4.23,1.25.72.05,1.42.07,2.11.07s1.39-.07,2.08-.22c.69-.14,1.41-.37,2.15-.68.74-.31,1.54-.78,2.4-1.4,1.15-.86,2.37-1.71,3.66-2.54,1.29-.84,2.66-1.43,4.12-1.79,1.46-.36,3.01-.35,4.66.04,1.65.38,3.38,1.36,5.2,2.94,1.19,1.05,2.08,2.27,2.65,3.66.57,1.39.84,2.83.79,4.34-.05,1.51-.39,3.01-1.04,4.52-.65,1.51-1.61,2.93-2.9,4.27-3.06,3.06-6.63,5.38-10.72,6.96s-8.45,2.37-13.09,2.37c-4.88,0-9.45-.86-13.73-2.58-4.28-1.72-8.01-4.09-11.19-7.1-3.18-3.01-5.7-6.57-7.56-10.68-1.86-4.11-2.82-8.58-2.87-13.41,0-4.88.93-9.42,2.8-13.62,1.86-4.21,4.39-7.88,7.56-11.01,3.18-3.13,6.92-5.59,11.22-7.39,4.3-1.79,8.89-2.69,13.77-2.69s9,.79,13.09,2.37,7.66,3.9,10.72,6.96c1.29,1.34,2.27,2.77,2.94,4.3.67,1.53,1.03,3.05,1.08,4.55.05,1.51-.23,2.95-.82,4.34-.6,1.39-1.49,2.61-2.69,3.66-1.82,1.58-3.55,2.56-5.2,2.94-1.65.38-3.2.39-4.66.04-1.46-.36-2.83-.97-4.12-1.83-1.29-.86-2.51-1.72-3.66-2.58-1.72-1.19-3.24-1.89-4.55-2.08-1.32-.19-2.71-.24-4.19-.14Z"/>
        <path class="cls-1" d="M408.84,295.18v-23.3c0-1.53.29-2.95.86-4.27.57-1.31,1.36-2.45,2.37-3.41,1-.96,2.17-1.71,3.51-2.26,1.34-.55,2.77-.82,4.3-.82s2.89.28,4.23.82c1.34.55,2.51,1.3,3.51,2.26,1,.96,1.79,2.09,2.37,3.41.57,1.32.86,2.74.86,4.27v23.16c0,1.43.23,2.86.68,4.27.45,1.41,1.1,2.68,1.94,3.8.84,1.12,1.86,2.03,3.08,2.72,1.22.69,2.59,1.04,4.12,1.04,2.96,0,5.28-.96,6.96-2.87,1.67-1.91,2.56-4.4,2.65-7.46v-24.31c0-1.48.29-2.89.86-4.23.58-1.34,1.35-2.51,2.34-3.51.98-1,2.15-1.79,3.49-2.37s2.78-.86,4.32-.86,2.91.29,4.28.86,2.55,1.36,3.56,2.37,1.81,2.18,2.41,3.51c.6,1.34.9,2.75.9,4.23v45.75c0,1.53-.3,2.95-.9,4.27s-1.41,2.46-2.44,3.44c-1.03.98-2.23,1.76-3.59,2.33-1.36.57-2.84.86-4.41.86-2.01,0-3.79-.45-5.35-1.36-1.55-.91-2.81-2.13-3.77-3.66-2.15,1.53-4.39,2.74-6.71,3.62-2.32.89-4.7,1.33-7.14,1.33-4.26,0-8.18-.92-11.77-2.76-3.59-1.84-6.68-4.3-9.26-7.39-2.58-3.08-4.61-6.66-6.07-10.72-1.46-4.06-2.19-8.32-2.19-12.76Z"/>
        <path class="cls-1" d="M506.36,302.49c1.58,2.01,3.17,3.53,4.77,4.55,1.6,1.03,3.6,1.54,5.99,1.54,1.15,0,2.09-.05,2.83-.14.74-.1,1.37-.24,1.9-.43.53-.19.98-.39,1.36-.61.38-.21.76-.44,1.15-.68,1.82-1.34,3.56-2.12,5.23-2.33,1.67-.21,3.25-.04,4.73.54,1.05.38,2,.96,2.83,1.72.84.77,1.54,1.63,2.12,2.58.57,1,.98,2.16,1.22,3.48.24,1.32.29,2.65.14,4.02-.14,1.36-.53,2.69-1.15,3.98-.62,1.29-1.51,2.39-2.65,3.3-.86.67-1.86,1.33-3.01,1.97-1.15.65-2.51,1.23-4.09,1.76-1.58.53-3.39.96-5.45,1.29-2.06.33-4.45.5-7.17.5-4.73,0-9.18-.9-13.34-2.69-4.16-1.79-7.8-4.23-10.93-7.31-3.13-3.08-5.6-6.69-7.42-10.83-1.82-4.13-2.72-8.57-2.72-13.3s.91-9.18,2.72-13.34c1.82-4.16,4.29-7.78,7.42-10.86,3.13-3.08,6.78-5.52,10.93-7.31,4.16-1.79,8.6-2.69,13.34-2.69s9,.87,13.09,2.62c4.09,1.75,7.65,4.15,10.68,7.21,3.04,3.06,5.44,6.63,7.21,10.72,1.77,4.09,2.7,8.47,2.8,13.16,0,1.39-.24,2.57-.72,3.55-.48.98-1.16,1.77-2.04,2.37-.89.6-1.92,1.03-3.12,1.29-1.2.26-2.51.39-3.94.39h-34.7ZM529.52,289.37c-1.29-2.34-2.9-4.16-4.84-5.45s-4.31-1.94-7.13-1.94-5.01.69-6.85,2.08c-1.84,1.39-3.38,3.16-4.62,5.31h23.45Z"/>
        <path class="cls-1" d="M573.27,261.12c2.2,0,4.16.57,5.89,1.72,1.72,1.15,3.02,2.63,3.88,4.45,2.54-1.86,5.18-3.35,7.93-4.45,2.75-1.1,5.49-1.65,8.22-1.65,4.26,0,8.03.91,11.31,2.72,3.28,1.82,6.03,4.27,8.25,7.35,2.23,3.08,3.92,6.63,5.1,10.65,1.17,4.02,1.76,8.25,1.76,12.69v23.52c0,1.53-.3,2.95-.9,4.27-.6,1.32-1.4,2.45-2.41,3.41-1.01.96-2.18,1.71-3.52,2.26-1.34.55-2.76.82-4.24.82s-2.97-.27-4.32-.82c-1.34-.55-2.52-1.3-3.52-2.26-1.01-.96-1.8-2.09-2.37-3.41-.58-1.31-.86-2.74-.86-4.27v-23.52c-.05-1.39-.23-2.77-.54-4.16-.31-1.39-.8-2.62-1.47-3.69-.67-1.08-1.52-1.95-2.55-2.62-1.03-.67-2.28-1-3.76-1s-2.96.26-4.3.79c-1.34.53-2.51,1.27-3.51,2.22-1,.96-1.79,2.1-2.37,3.44s-.86,2.8-.86,4.37v23.81c0,1.53-.29,2.95-.86,4.27-.57,1.32-1.35,2.47-2.33,3.48-.98,1-2.14,1.79-3.48,2.37-1.34.57-2.77.86-4.3.86s-2.98-.29-4.34-.86c-1.36-.57-2.55-1.36-3.55-2.37-1-1-1.8-2.16-2.4-3.48-.6-1.31-.9-2.74-.9-4.27v-45.67c0-1.48.3-2.89.9-4.23.6-1.34,1.41-2.51,2.44-3.51,1.03-1,2.22-1.79,3.59-2.37,1.36-.57,2.83-.86,4.41-.86Z"/>
        <path class="cls-1" d="M667.61,261.33h1.08c1.59,0,3.06.29,4.43.86,1.37.57,2.56,1.36,3.57,2.37,1.01,1,1.8,2.18,2.38,3.51.58,1.34.87,2.77.87,4.3s-.29,2.98-.87,4.34-1.37,2.55-2.38,3.55c-1.01,1-2.2,1.79-3.57,2.37-1.37.57-2.85.86-4.43.86h-1.08v34.34c0,1.53-.29,2.96-.86,4.3-.57,1.34-1.36,2.5-2.37,3.48-1,.98-2.19,1.75-3.55,2.29-1.36.55-2.81.82-4.34.82s-2.96-.27-4.3-.82c-1.34-.55-2.51-1.31-3.51-2.29-1-.98-1.79-2.14-2.37-3.48-.57-1.34-.86-2.77-.86-4.3v-34.34h-1.15c-1.53,0-2.98-.3-4.34-.9-1.36-.6-2.55-1.4-3.55-2.4-1-1-1.79-2.17-2.37-3.51-.57-1.34-.86-2.77-.86-4.3s.29-2.96.86-4.3c.58-1.34,1.37-2.51,2.38-3.51,1.01-1,2.2-1.79,3.57-2.37,1.37-.57,2.82-.86,4.36-.86h1.15v-13.48c0-1.53.29-2.95.86-4.27.57-1.31,1.36-2.46,2.36-3.44,1-.98,2.17-1.76,3.5-2.33,1.33-.57,2.76-.86,4.29-.86s2.97.29,4.32.86c1.36.57,2.54,1.35,3.54,2.33,1,.98,1.79,2.13,2.36,3.44.57,1.32.86,2.74.86,4.27v13.48Z"/>
        <path class="cls-1" d="M684.1,295.39c0-4.73.91-9.17,2.72-13.3,1.82-4.13,4.28-7.75,7.39-10.86s6.73-5.56,10.86-7.35c4.13-1.79,8.54-2.69,13.23-2.69s9.17.9,13.3,2.69c4.13,1.79,7.74,4.24,10.83,7.35,3.08,3.11,5.52,6.73,7.31,10.86,1.79,4.14,2.69,8.57,2.69,13.3s-.9,9.11-2.69,13.26c-1.79,4.16-4.23,7.78-7.31,10.86-3.08,3.08-6.69,5.52-10.83,7.31-4.14,1.79-8.57,2.69-13.3,2.69s-9.09-.9-13.23-2.69c-4.14-1.79-7.76-4.23-10.86-7.31-3.11-3.08-5.57-6.7-7.39-10.86-1.82-4.16-2.72-8.58-2.72-13.26ZM706.33,295.39c0,1.67.32,3.23.97,4.66.65,1.43,1.52,2.69,2.62,3.76,1.1,1.08,2.37,1.92,3.8,2.54,1.43.62,2.96.93,4.59.93s3.17-.31,4.62-.93c1.46-.62,2.74-1.47,3.84-2.54,1.1-1.08,1.96-2.33,2.58-3.76.62-1.43.93-2.99.93-4.66s-.31-3.23-.93-4.66c-.62-1.43-1.48-2.69-2.58-3.76-1.1-1.08-2.38-1.92-3.84-2.55-1.46-.62-3-.93-4.62-.93s-3.15.31-4.59.93c-1.43.62-2.7,1.47-3.8,2.55-1.1,1.08-1.97,2.33-2.62,3.76-.65,1.43-.97,2.99-.97,4.66Z"/>
      </g>
      <g>
        <path class="cls-1" d="M323.33,233.58v-109.99h-8.98v-3.06l12.04-42.85h19.79v155.91h-22.86Z"/>
        <path class="cls-1" d="M426.39,233.58h-46.73c-8.98,0-13.88-5.1-13.88-14.29v-35.92h22.86v30.2h28.98v-60h-51.83l2.45-75.91h71.22v20.41h-49.59l-1.43,35.51h37.96c9.18,0,14.08,5.1,14.08,14.08v71.63c0,9.18-4.9,14.29-14.08,14.29Z"/>
        <path class="cls-1" d="M494.34,155.22h-26.94c-8.16,0-12.04-3.88-12.04-12.04v-53.47c0-8.37,3.88-12.04,12.04-12.04h26.94c8.16,0,12.04,3.67,12.04,12.04v53.47c0,8.16-3.88,12.04-12.04,12.04ZM481.28,233.58h-18.16v-1.43l84.89-154.48h18.16v1.43l-84.89,154.48ZM489.65,92.16h-17.75v48.57h17.75v-48.57ZM562.3,233.58h-27.14c-8.16,0-12.04-3.88-12.04-12.04v-53.47c0-8.16,3.88-12.04,12.04-12.04h27.14c7.96,0,12.04,4.29,12.04,12.65v52.85c0,8.16-4.08,12.04-12.04,12.04ZM557.4,170.52h-17.55v48.57h17.55v-48.57Z"/>
      </g>
      <g class="cls-2">
        <path class="cls-3" d="M801.66,159.5l.16.15s-.21-.1-.16-.15h0ZM749.23,109.02c5.33-1.84,7.77,6.35,3.19,7.94-5.47,1.91-8.72-6.03-3.19-7.94h0ZM760.33,103.76c.66-.15,1.44.24.48.08-.03,0-.67-.04-.48-.08h0ZM783.77,95.05l.29.16s-.39-.1-.29-.16h0ZM753.59,72.51c-5.13-7.66-18.42-12.98-29.41-13.59,1.94,36.62,21.89,39.96,26.23,44.61-9.77,3.97-14.55,17.18-13.91,31.16,1.39-3.6,3.73-8.45,4.82-11.88,2.75,3.32,3.94,6.03,9.73,7.47,8.03,2,17.95-4.47,16.77-15.65-.59-5.66-3.66-7.82-6.55-10.62,12.94,2.37,17.1,13.53,12.03,22.35-6.33,10.99-13.69,8.53-27.88,10.95,7.74,3.26,32.94,3.63,46.09,12.39,3.41,2.27,8.71,6.49,10.16,9.81-8.43-5.26-14.12-6.75-25.58-6.23-8.74.4-19.97,2.51-25.69,6.56,16.85-2.94,36,1.61,49.58,11.58,4.31,3.16,6.71,6.2,10.23,10.6,8.01-23.22,5.18-52.12-10.31-71.49l-15.22-15.02c3.91.89,7.78,4.03,11.15,5.53-8.52-16.67-4.32-37.53,6.13-52,.96-1.33,1.36-1.79,2.16-2.94l3.12-2.81c-.04,10.27-.23,20.56-1.45,30.63l-2.99,20.48c-.3,2.82.65,2.66,2.48,4.47,1.55,1.53,1.99,2.44,3.35,4.09,3.41,4.14,7.18,9.39,9.59,14.33,21.24,43.47,2.45,94.66-26.8,112.14-36.47,21.79-68.26-10.56-94.32-17.81-49.18-13.68-75.96,33.67-49.23,52.2.27-.31.33-.36.72-1.08,1.49-2.77,2.31-5.13,5.14-7.99,7.94-8,22.39-11.93,34.61-11.58,41.67,1.19,77.36,55.77,133.9-2.27,9.08-9.32,18.39-26.24,23.12-37.89,6.34-15.6,9.35-33.84,8.83-52.73-.44-15.83-5.58-37.71-11.88-49.69-6.73-12.81-14.35-27.03-25.02-36.17l3.2,5.84c-2.1-1.53-5.51-4.08-7.62-5.87l1.05-31.71c-16.07,1.58-39.69,13.63-50.8,24.27-5.3,5.07-8.01,8.89-9.53,15.57Z"/>
        <path class="cls-3" d="M643.29,159.31c-.09-.1.24-.36.29-.26.05.1.25-.21.31-.24l.72-.39c.07-.04.27-.1.39-.16-.06.12-.14.19-.18.37l-.94,1.35c-.1-.11-.34-.4-.36-.28-.02.13-.15-.28-.25-.39h0ZM682.26,113.22c-.45-5.25,8.47-6.51,8.79-.5.3,5.71-8.32,6.03-8.79.5h0ZM632.63,64.87c-2.13.94-6.34,3.87-7.34,5.3l2.64-5.3c-1.5.86-6.08,5.63-7.39,7.35-28.99,38.2-38.01,85.65-20.04,131.11,3.7,9.36,17.19,33.91,23.92,37.74-.17-6.29.95-11.7,3.4-16.78,2.11-4.38,4.9-9.33,7.89-12.46l-9.31-17.3c-9.45-22.24-11.37-45.34-2.95-68.1,2.74-7.41,5.5-11.72,9.11-17.68,2.11-3.49,6.64-8.15,9.44-11.11,1.54-1.63,1.2-1.58.62-4.77-2.66-14.65-5.29-34.66-4.38-50.13,12.17,12.08,19.8,35.54,14.21,52.26-.95,2.85-2.42,4.37-3.28,6.59,2.16-1.86,10.09-5.85,13.47-6.99l-6.25,4.95c-9.02,7.25-16.74,18.16-20.92,29.79-6.01,16.74-5.88,36.37,0,52.74,6.72-8.93,11.53-13.39,22.85-17.93,9.61-3.86,26.04-6.55,36.5-4.29-6.54-5.89-31.49-8.81-44.31-4.06-2.49.92-3.28,2.18-5.49,2.48,1.23-5.39,14.65-12.41,23.07-14.55l32.01-6.19c-5.72-2.48-20.46,1.93-27.97-11.5-6.26-11.2,3.31-21.41,13.26-22.25-13.4,4.99-6.49,30.76,9.13,26.49,6.02-1.64,6.65-3.7,9.53-7.64,1.72,3.59,3.66,9.34,5.27,12.2,1.22-8.7-1.7-19.65-7.52-26.48-2.27-2.67-4.57-3.29-6.55-5.36,8.27-3.78,14.42-9.28,18.68-16.01,6.01-9.48,6.65-15.61,7.7-28.1-11.19.54-18.69,3.94-26.15,10.77l-3.41,2.77c-1.59-17.95-43.97-39.57-60.39-39.75-1.33,7.51,1.52,23.15.96,32.23Z"/>
        <path class="cls-3" d="M673.47,35.08c.91,1.19,10.79,6.65,12.63,7.98,3.63,2.63,7.47,6.73,10.49,9.98,8.15-4.93,28.54-5.84,40.14-3.61,4.4.85,8.72,2.66,12.58,3.3,1.98-1.48,3.26-3.42,5.08-5.13,2.28-2.14,2.7-2.9,5.47-4.79l13.33-7.58c-24.69-10.22-49.68-13.59-77.01-7.67-9.07,1.97-15.15,4.89-22.71,7.51Z"/>
        <path class="cls-3" d="M746.16,173.4c16.96,4.77,33.81,9.87,44.24,24.11l6.77,9.79c1.47-1.52,4.06-5.76,5.25-7.9,1.89-3.4,4.47-6.05,2.5-8.39-13.38-15.87-42.21-25-58.78-17.61Z"/>
        <path class="cls-3" d="M639.76,192.44c1.35,4.74,5.79,11.27,8.01,14.79,1.17-1.22,4.2-7.19,8.77-12.4,2.46-2.8,7.84-6.93,11.67-9.43,6.97-4.55,13.97-7.39,22.08-9.84l8.36-2.49c-10.17-3.37-25.33-1.6-35.1,1.99-11.53,4.24-18.16,9.76-23.78,17.37Z"/>
        <path class="cls-3" d="M709.64,147.99c1.39,7.74,10.6,7.51,10.49,16.49-.09,7.42-6.74,12.73-14.76,11.84,3.36,4.75,11.27,4.5,17.14-1.39,5.49,3.91,10.44,7.69,18.06,1.6-4.33-.33-7.05-.33-10.09-2.88-1.96-1.65-4.73-5.08-4.85-9.14-.29-9.29,9.69-9.21,10.45-16.53-2.61-1.73-9.4-1.84-12.99-1.87-5.5-.05-11.19.43-13.45,1.87Z"/>
      </g>
      <g>
        <path class="cls-4" d="M73.9,41.34c-1.26-2.39-2.68-5.04-4.67-6.75l.6,1.09c-.39-.29-1.03-.76-1.42-1.1l.2-5.91c-3,.29-7.4,2.54-9.47,4.53-.99.95-1.49,1.66-1.78,2.9-.96-1.43-3.44-2.42-5.49-2.53.36,6.83,4.08,7.45,4.89,8.32-1.82.74-2.71,3.2-2.6,5.81.26-.67.7-1.58.9-2.22.51.62.73,1.13,1.81,1.39,1.5.37,3.35-.83,3.13-2.92-.11-1.06-.68-1.46-1.22-1.98,2.41.44,3.19,2.52,2.24,4.17-1.18,2.05-2.55,1.59-5.2,2.04,1.44.61,6.14.68,8.6,2.31.64.42,1.62,1.21,1.9,1.83l.03.03s-.04-.02-.03-.03c-1.57-.98-2.63-1.26-4.77-1.16-1.63.07-3.73.47-4.79,1.22,3.14-.55,6.72.3,9.25,2.16.8.59,1.25,1.16,1.91,1.98,1.49-4.33.97-9.72-1.92-13.34l-2.84-2.8c.73.17,1.45.75,2.08,1.03-1.59-3.11-.81-7,1.14-9.7.18-.25.25-.33.4-.55l.58-.52c0,1.92-.04,3.83-.27,5.71l-.56,3.82c-.06.53.12.5.46.83.29.29.37.45.62.76.64.77,1.34,1.75,1.79,2.67,3.96,8.11.46,17.66-5,20.92-6.8,4.06-12.73-1.97-17.59-3.32-9.17-2.55-14.17,6.28-9.18,9.74.05-.06.06-.07.14-.2.28-.52.43-.96.96-1.49,1.48-1.49,4.18-2.23,6.46-2.16,7.77.22,14.43,10.4,24.98-.42,1.69-1.74,3.43-4.89,4.31-7.07,1.18-2.91,1.74-6.31,1.65-9.84-.08-2.95-1.04-7.03-2.22-9.27ZM57.13,44.39c-1.02.36-1.63-1.13-.6-1.48.99-.34,1.45,1.18.6,1.48ZM58.69,41.95s-.13,0-.09-.02c.12-.03.27.04.09.02ZM62.98,40.31l.05.03s-.07-.02-.05-.03Z"/>
        <path class="cls-4" d="M33.07,46.16c.51-1.38,1.03-2.19,1.7-3.3.39-.65,1.24-1.52,1.76-2.07.29-.3.22-.29.12-.89-.5-2.73-.99-6.46-.82-9.35,2.27,2.25,3.69,6.63,2.65,9.75-.18.53-.45.81-.61,1.23.4-.35,1.88-1.09,2.51-1.3l-1.17.92c-1.68,1.35-3.12,3.39-3.9,5.56-1.12,3.12-1.1,6.78,0,9.84,1.25-1.67,2.15-2.5,4.26-3.35,1.79-.72,4.86-1.22,6.81-.8-1.22-1.1-5.87-1.64-8.26-.76-.46.17-.61.41-1.02.46-.01.02-.03.03-.03.07l-.18.25s-.06-.07-.07-.05c0,.02-.03-.05-.05-.07-.02-.02.05-.07.05-.05,0,.02.05-.04.06-.05l.13-.07s.05-.02.07-.03c.23-1.01,2.73-2.31,4.3-2.71l5.97-1.16c-1.07-.46-3.82.36-5.22-2.15-1.17-2.09.62-3.99,2.47-4.15-2.5.93-1.21,5.74,1.7,4.94,1.12-.31,1.24-.69,1.78-1.43.32.67.68,1.74.98,2.28.23-1.62-.32-3.67-1.4-4.94-.42-.5-.85-.61-1.22-1,1.54-.71,2.69-1.73,3.48-2.99,1.12-1.77,1.24-2.91,1.44-5.24-2.09.1-3.49.73-4.88,2.01l-.64.52c-.3-3.35-8.2-7.38-11.26-7.41-.25,1.4.28,4.32.18,6.01-.4.18-1.18.72-1.37.99l.49-.99c-.28.16-1.13,1.05-1.38,1.37-5.41,7.12-7.09,15.98-3.74,24.46.69,1.75,3.21,6.32,4.46,7.04-.03-1.17.18-2.18.63-3.13.39-.82.91-1.74,1.47-2.32l-1.74-3.23c-1.76-4.15-2.12-8.46-.55-12.7ZM45.68,43.6c.06,1.06-1.55,1.13-1.64.09-.08-.98,1.58-1.21,1.64-.09Z"/>
        <path class="cls-4" d="M46.71,32.47c1.52-.92,5.32-1.09,7.49-.67.82.16,1.63.5,2.35.62.37-.28.61-.64.95-.96.42-.4.5-.54,1.02-.89l2.49-1.41c-4.61-1.91-9.27-2.53-14.36-1.43-1.69.37-2.83.91-4.24,1.4.17.22,2.01,1.24,2.36,1.49.68.49,1.39,1.25,1.96,1.86Z"/>
        <path class="cls-4" d="M64.21,59.42l1.26,1.83c.27-.28.76-1.07.98-1.47.35-.63.83-1.13.47-1.56-2.5-2.96-7.87-4.66-10.96-3.29,3.16.89,6.31,1.84,8.25,4.5Z"/>
        <path class="cls-4" d="M40.55,55.23c-2.15.79-3.39,1.82-4.44,3.24.25.88,1.08,2.1,1.49,2.76.22-.23.78-1.34,1.63-2.31.46-.52,1.46-1.29,2.18-1.76,1.3-.85,2.6-1.38,4.12-1.83l1.56-.46c-1.9-.63-4.73-.3-6.55.37Z"/>
        <path class="cls-4" d="M54.08,50.18c-.49-.32-1.75-.34-2.42-.35-1.03,0-2.09.08-2.51.35.26,1.44,1.98,1.4,1.96,3.08-.02,1.38-1.26,2.38-2.75,2.21.63.89,2.1.84,3.2-.26,1.02.73,1.95,1.44,3.37.3-.81-.06-1.32-.06-1.88-.54-.37-.31-.88-.95-.91-1.7-.05-1.73,1.81-1.72,1.95-3.08Z"/>
        <path class="cls-4" d="M117.93,50.3c-.26-.25-.57-.44-.92-.59-.35-.15-.73-.22-1.13-.22l-6.78-.05c-.4,0-.77.08-1.11.23-.34.15-.63.36-.89.62-.25.26-.45.57-.6.91-.15.35-.22.71-.22,1.1s.07.77.22,1.12c.15.35.35.65.6.91.25.26.55.47.89.61.34.15.71.22,1.11.22h3.32c-.57,1.31-1.49,2.29-2.76,2.94s-2.79.98-4.56.98c-1.29,0-2.5-.24-3.62-.72-1.12-.48-2.1-1.13-2.93-1.96-.83-.83-1.48-1.81-1.96-2.93-.48-1.12-.72-2.34-.72-3.64s.25-2.52.74-3.65c.49-1.12,1.15-2.1,1.98-2.93.83-.83,1.8-1.48,2.91-1.95,1.11-.47,2.28-.7,3.53-.7s2.4.22,3.54.65c1.15.43,2.19,1.11,3.13,2.03.28.28.59.48.95.61.35.13.71.19,1.07.18.36,0,.72-.08,1.06-.22.35-.14.66-.35.93-.62s.48-.59.62-.93c.14-.35.21-.7.21-1.06s-.07-.71-.21-1.05c-.14-.34-.35-.65-.62-.92-1.49-1.48-3.13-2.59-4.91-3.33-1.78-.75-3.73-1.12-5.84-1.12-1.38,0-2.71.18-3.99.54-1.28.36-2.46.87-3.56,1.53-1.1.66-2.1,1.45-2.99,2.38-.89.92-1.66,1.94-2.3,3.06-.64,1.12-1.13,2.31-1.48,3.59-.35,1.28-.52,2.6-.52,3.97s.18,2.71.53,3.98c.35,1.27.85,2.46,1.5,3.56.65,1.11,1.42,2.11,2.33,3.02.91.91,1.91,1.69,3.02,2.34,1.11.65,2.3,1.16,3.58,1.51,1.28.35,2.61.53,3.99.53,1.86,0,3.61-.31,5.26-.95,1.65-.63,3.09-1.5,4.33-2.61,1.24-1.11,2.22-2.43,2.95-3.96.73-1.53,1.12-3.19,1.16-4.99,0-.42-.08-.8-.23-1.14-.15-.35-.36-.64-.62-.89Z"/>
        <path class="cls-4" d="M139.99,46c-.99-.98-2.15-1.75-3.47-2.32-1.32-.57-2.73-.85-4.22-.85s-2.93.29-4.26.87c-1.33.58-2.5,1.36-3.49,2.36-1,1-1.79,2.16-2.38,3.49-.58,1.33-.88,2.76-.88,4.28s.29,2.93.88,4.27c.58,1.34,1.38,2.5,2.38,3.49,1,.99,2.16,1.78,3.49,2.35,1.33.58,2.75.87,4.26.87,1.02,0,1.99-.16,2.92-.48.93-.32,1.81-.76,2.64-1.32.22.46.54.83.97,1.12.43.28.94.43,1.52.43.42,0,.8-.08,1.15-.23.35-.15.66-.36.92-.62s.47-.57.62-.93c.15-.36.23-.74.23-1.14v-7.96c-.03-1.49-.34-2.9-.92-4.22-.58-1.32-1.37-2.47-2.36-3.45ZM137.14,55.89c-.28.64-.65,1.2-1.12,1.68-.47.48-1.03.85-1.66,1.12s-1.33.4-2.07.4-1.41-.13-2.05-.4c-.64-.27-1.2-.64-1.68-1.12-.48-.48-.86-1.04-1.13-1.68-.28-.64-.42-1.32-.42-2.05s.14-1.43.42-2.06c.28-.63.65-1.19,1.13-1.66.48-.48,1.04-.85,1.68-1.12.64-.27,1.32-.4,2.05-.4s1.43.14,2.07.4,1.19.64,1.66,1.12c.47.48.84,1.03,1.12,1.66.28.63.42,1.32.42,2.06s-.14,1.41-.42,2.05Z"/>
        <path class="cls-4" d="M158.91,43.69c-.25-.25-.56-.45-.91-.6-.35-.15-.73-.22-1.13-.22h-1.27v-5.03c0-.4-.07-.77-.22-1.11-.15-.34-.35-.63-.61-.89-.26-.25-.57-.45-.91-.6-.35-.15-.72-.22-1.12-.22s-.77.07-1.12.22c-.35.15-.65.35-.91.6-.26.25-.47.55-.61.89-.15.34-.22.71-.22,1.11v5.03h-1.08c-.4,0-.77.07-1.12.22-.35.15-.65.35-.91.6-.26.25-.47.55-.61.9-.15.35-.22.72-.22,1.12s.07.77.22,1.12c.15.35.35.65.61.91.26.26.57.47.91.62.35.15.72.23,1.12.23h1.08v13.15c0,.4.07.77.22,1.11.15.34.35.63.61.89.26.25.57.45.91.6.35.15.72.22,1.12.22s.77-.07,1.12-.22c.35-.15.65-.35.91-.6.26-.25.47-.55.61-.89.15-.34.22-.71.22-1.11v-13.15h1.27c.4,0,.78-.08,1.13-.23.35-.15.66-.36.91-.62.25-.26.45-.57.6-.91.15-.35.22-.72.22-1.12s-.07-.77-.22-1.12c-.15-.35-.35-.65-.6-.9Z"/>
        <path class="cls-4" d="M179.79,46.06c-.99-1-2.15-1.79-3.48-2.36-1.33-.58-2.76-.87-4.28-.87s-2.93.29-4.26.87c-1.33.58-2.5,1.36-3.49,2.36-1,1-1.79,2.16-2.38,3.49-.58,1.33-.88,2.76-.88,4.28s.29,2.93.88,4.27c.58,1.34,1.38,2.5,2.38,3.49,1,.99,2.16,1.78,3.49,2.35,1.33.58,2.75.87,4.26.87s2.95-.29,4.28-.87c1.33-.58,2.49-1.36,3.48-2.35.99-.99,1.78-2.16,2.35-3.49.58-1.34.86-2.76.86-4.27s-.29-2.95-.86-4.28c-.58-1.33-1.36-2.49-2.35-3.49ZM176.87,55.87c-.28.64-.65,1.2-1.12,1.67-.47.48-1.02.85-1.66,1.12-.64.27-1.33.4-2.06.4s-1.4-.13-2.04-.4c-.64-.27-1.2-.64-1.67-1.12-.48-.48-.85-1.03-1.13-1.67-.28-.64-.42-1.32-.42-2.04s.14-1.42.42-2.05c.28-.63.65-1.18,1.13-1.66.48-.48,1.03-.85,1.67-1.12.64-.27,1.32-.4,2.04-.4s1.43.13,2.06.4c.64.27,1.19.64,1.66,1.12.47.48.84,1.03,1.12,1.66.28.63.42,1.32.42,2.05s-.14,1.4-.42,2.04Z"/>
        <path class="cls-4" d="M205.85,46.65c.13-.35.19-.7.17-1.07-.02-.37-.1-.73-.24-1.07-.15-.35-.36-.66-.63-.93s-.59-.48-.95-.61c-.35-.13-.72-.19-1.08-.18-.37,0-.73.08-1.07.23-.35.15-.66.36-.93.63l-6.07,6.11-6.14-6.16c-.28-.28-.59-.48-.95-.62-.35-.14-.71-.21-1.07-.21s-.72.07-1.06.2c-.35.13-.66.33-.93.61-.29.28-.51.59-.66.95-.15.35-.22.71-.22,1.07s.07.72.2,1.06c.13.35.33.66.61.93l6.18,6.23-5.95,5.97c-.28.28-.48.59-.62.95-.14.35-.21.71-.21,1.06s.07.7.21,1.04c.14.34.35.65.62.92s.6.48.96.61c.36.13.73.2,1.11.2s.75-.07,1.11-.2c.36-.13.68-.33.96-.61l5.86-5.88,5.86,5.86c.28.28.59.48.93.62.35.14.7.21,1.06.21s.72-.07,1.07-.21c.35-.14.68-.35.97-.62.28-.28.48-.59.62-.95.14-.35.21-.72.21-1.08s-.07-.73-.21-1.08c-.14-.35-.35-.67-.62-.95l-5.86-5.86,6.18-6.23c.26-.28.46-.59.59-.93Z"/>
      </g>
    </g>
  </g>
</svg>